<svg version="1.2" xmlns="http://www.w3.org/2000/svg" viewBox="0 0 1000 1000" width="1000" height="1000">
	<title>onn-icon-svg</title>
	<style>
		.s0 { fill: #000000 } 
	</style>
	<path id="Layer" class="s0" d="m653.7 214.5c36.4-36.4 95.4-36.4 131.8 0 36.4 36.4 36.4 95.4 0 131.8l-439.2 439.2c-36.4 36.4-95.4 36.4-131.8 0-36.4-36.4-36.4-95.4 0-131.8z"/>
	<path id="Layer" class="s0" d="m669.1 493.4c36.4-36.4 95.4-36.4 131.7 0 36.4 36.4 36.4 95.4 0 131.8l-263.5 263.5c-36.4 36.4-95.3 36.4-131.7 0-36.4-36.4-36.4-95.4 0-131.8z"/>
	<path id="Layer" class="s0" d="m374.8 199.2c36.4-36.4 95.4-36.4 131.8 0 36.4 36.3 36.4 95.3 0 131.7l-263.5 263.5c-36.4 36.4-95.4 36.4-131.8 0-36.4-36.4-36.4-95.3 0-131.7z"/>
</svg>